<?xml version="1.0" standalone="no"?><!DOCTYPE svg PUBLIC "-//W3C//DTD SVG 1.1//EN" "http://www.w3.org/Graphics/SVG/1.1/DTD/svg11.dtd"><svg t="1687318319459" class="icon" viewBox="0 0 1024 1024" version="1.1" xmlns="http://www.w3.org/2000/svg" p-id="11537" width="128" height="128" xmlns:xlink="http://www.w3.org/1999/xlink"><path d="M579.413333 451.413333h-31.573333c-6.826667 11.093333-12.8 22.186667-21.333333 31.573334h52.906666v-31.573334zM578.56 490.666667h-58.88c-6.826667 6.826667-11.946667 11.093333-18.773333 16.213333 11.093333 6.826667 21.333333 13.653333 27.306666 22.186667 23.04-13.653333 40.106667-26.453333 50.346667-38.4zM448.853333 459.093333v23.893334h23.04c7.68-9.386667 14.506667-20.48 21.333334-31.573334h-41.813334c-1.706667 2.56-2.56 5.12-2.56 7.68zM520.533333 412.16h-37.546666c-11.093333 9.386667-23.04 18.773333-35.84 26.453333 0.853333 0 1.706667 0 3.413333 0.853334 2.56 0.853333 3.413333 1.706667 3.413333 2.56h52.906667l13.653333-29.866667z" p-id="11538" fill="#C1A887"></path><path d="M512 256c-141.653333 0-256 114.346667-256 256s114.346667 256 256 256 256-114.346667 256-256-114.346667-256-256-256z m0 483.84c-125.44 0-227.84-102.4-227.84-227.84s102.4-227.84 227.84-227.84 227.84 102.4 227.84 227.84-102.4 227.84-227.84 227.84z" p-id="11539" fill="#C1A887"></path><path d="M512 292.693333c-121.173333 0-219.306667 98.133333-219.306667 219.306667S390.826667 731.306667 512 731.306667 731.306667 633.173333 731.306667 512 633.173333 292.693333 512 292.693333z m138.24 308.053334c-8.533333 7.68-17.066667 15.36-22.186667 25.6-3.413333 7.68-7.68 9.386667-13.653333 5.973333-34.133333-13.653333-56.32-45.226667-68.266667-93.866667-5.12 0-7.68 0-10.24 0.853334 8.533333 16.213333 13.653333 38.4 12.8 67.413333 0 28.16-17.066667 45.226667-50.346666 50.346667-11.093333 2.56-17.92 0-17.92-7.68-0.853333-11.093333-7.68-18.773333-21.333334-22.186667-7.68-1.706667-9.386667-4.266667-7.68-7.68 0-2.56 3.413333-3.413333 10.24-3.413333 29.013333 2.56 43.52-4.266667 41.813334-19.626667V588.8c-26.453333 17.92-69.12 34.986667-126.293334 51.2-4.266667 0-6.826667-0.853333-7.68-2.56s0.853333-3.413333 5.12-5.12c53.76-29.866667 95.573333-58.88 122.88-87.04v0.853333c-37.546667 29.866667-74.24 49.493333-111.786666 56.32-4.266667 0.853333-6.826667 0.853333-7.68 0 0-1.706667 1.706667-3.413333 5.12-5.973333 31.573333-21.333333 59.733333-44.373333 82.773333-70.826667-17.92 9.386667-45.226667 19.626667-82.773333 29.013334-5.12 1.706667-7.68 0.853333-7.68-0.853334s1.706667-3.413333 5.973333-5.973333c34.986667-18.773333 61.44-37.546667 80.213333-58.026667h-15.36v5.973334c0 6.826667-3.413333 10.24-8.533333 12.8-7.68 2.56-14.506667 3.413333-23.04 3.413333-9.386667 1.706667-14.506667-2.56-12.8-12.8v-7.68c1.706667-8.533333 2.56-15.36 2.56-19.626667V460.8c-10.24 5.12-20.48 8.533333-29.013333 11.093333-4.266667 0.853333-6.826667 0-7.68-0.853333-0.853333-1.706667 0-3.413333 3.413333-5.973333l2.56-2.56c22.186667-20.48 40.106667-38.4 53.76-55.466667 8.533333-9.386667 16.213333-22.186667 23.04-37.546667 1.706667-3.413333 5.12-4.266667 10.24-3.413333 17.066667 3.413333 34.133333 7.68 51.2 12.8 3.413333 1.706667 5.12 4.266667 5.12 7.68-0.853333 3.413333-2.56 5.12-5.973333 5.12-7.68 1.706667-12.8 3.413333-15.36 5.973333l-5.12 5.12h25.6c6.826667-8.533333 11.946667-15.36 17.92-17.92 11.093333 4.266667 25.6 11.946667 41.813333 23.893334 3.413333 5.973333 4.266667 9.386667 3.413333 12.8-1.706667 2.56-5.12 3.413333-10.24 3.413333-13.653333 0.853333-29.013333 6.826667-46.08 16.213333h52.906667c6.826667-8.533333 10.24-13.653333 13.653333-13.653333 17.066667 6.826667 30.72 14.506667 41.813334 23.893333 0 4.266667-1.706667 6.826667-5.973334 7.68-3.413333 2.56-5.12 5.12-5.12 7.68v3.413334c0.853333 4.266667 0.853333 7.68 0.853334 12.8 0.853333 8.533333-1.706667 13.653333-7.68 15.36-3.413333 0.853333-5.973333 1.706667-7.68 2.56 7.68 5.973333 13.653333 10.24 21.333333 16.213333 2.56 3.413333 3.413333 6.826667 2.56 8.533333-2.56 3.413333-5.12 4.266667-7.68 3.413334-7.68 0-14.506667 0-23.893333 0.853333-12.8 2.56-26.453333 5.12-40.106667 7.68 22.186667 31.573333 52.906667 49.493333 88.746667 52.906667 3.413333 0.853333 5.12 2.56 5.973333 5.973333 2.56 0 0.853333 2.56-2.56 4.266667z" p-id="11540" fill="#C1A887"></path></svg>